<svg width="244" height="214" viewBox="0 0 244 214" fill="none" xmlns="http://www.w3.org/2000/svg">
<path d="M93.5706 5.72843C94.3682 6.02947 95.1659 6.33052 95.9877 6.64069C105.755 10.552 113.987 17.2037 121.322 24.6284C123.186 26.2033 124.465 26.8166 126.845 27.3209C127.508 27.2176 128.171 27.1144 128.855 27.0081C130.874 27.0198 130.874 27.0198 132.842 28.6665C133.807 29.7635 133.807 29.7635 134.791 30.8827C137.507 33.9409 137.507 33.9409 140.582 36.6201C142.364 38.0206 143.348 39.2804 144.553 41.1829C147.738 46.026 151.229 50.5191 155.151 54.7905C157.337 57.2099 159.346 59.7055 161.303 62.313C161.827 63.0093 162.352 63.7056 162.892 64.4229C163.972 65.8663 165.043 67.3161 166.106 68.7716C166.629 69.4594 167.151 70.1472 167.689 70.8558C168.384 71.7944 168.384 71.7944 169.094 72.752C170.509 74.257 170.509 74.257 172.515 74.227C174.858 73.7237 176.949 73.0105 179.175 72.1231C180.056 71.7757 180.937 71.4282 181.845 71.0702C182.781 70.6951 183.718 70.3199 184.683 69.9334C186.151 69.3548 187.619 68.7761 189.088 68.1986C190.082 67.8078 191.075 67.4163 192.068 67.0242C196.754 65.1742 201.454 63.3633 206.166 61.5798C206.864 61.3117 207.562 61.0436 208.281 60.7674C219.522 56.5235 219.522 56.5235 224.516 57.6159C223.666 77.9328 214.341 108.435 199.512 122.96C197.016 125.241 194.469 127.459 191.898 129.656C190.171 131.134 188.469 132.632 186.778 134.15C183.8 136.818 180.779 139.434 177.75 142.044C176.043 143.531 174.357 145.035 172.675 146.55C168.537 150.247 164.234 153.741 159.937 157.252C159.022 158.004 159.022 158.004 158.089 158.772C157.538 159.222 156.987 159.672 156.42 160.136C155.044 161.247 155.044 161.247 154.124 162.767C165.981 166.355 177.815 168.31 190.082 169.818C190.818 169.911 191.555 170.004 192.313 170.1C194.438 170.365 196.564 170.618 198.692 170.866C199.33 170.945 199.968 171.024 200.626 171.105C206.554 171.76 210.504 170.835 215.599 167.63C220.254 164.793 224.997 162.172 229.847 159.681C230.487 159.342 231.126 159.003 231.785 158.654C235.626 156.706 238.427 155.752 242.756 156.143C244.338 158.16 243.007 162.614 242.715 165.083C241.67 172.82 239.932 180.406 238.195 188.01C238.049 188.66 237.903 189.31 237.753 189.98C237.326 191.87 236.887 193.756 236.444 195.641C236.317 196.204 236.191 196.766 236.06 197.346C235.106 201.301 233.586 204.54 231.588 208.088C227.683 207.223 225.183 205.55 222.238 202.961C221.805 202.594 221.371 202.226 220.925 201.847C218.626 199.896 216.36 197.911 214.1 195.916C213.657 195.533 213.214 195.15 212.758 194.755C211.914 194.024 211.078 193.284 210.252 192.532C207.235 189.933 205.089 189.489 201.171 189.234C199.004 189.396 196.908 189.607 194.761 189.901C194.156 189.978 193.55 190.056 192.926 190.135C190.998 190.381 189.072 190.637 187.145 190.894C184.631 191.222 182.115 191.547 179.6 191.87C178.98 191.95 178.36 192.03 177.721 192.113C172.467 192.782 167.203 193.301 161.926 193.75C159.073 193.805 159.073 193.805 156.566 194.898C154.457 195.019 152.357 195.103 150.246 195.166C144.332 195.374 138.457 195.744 132.572 196.375C129.345 196.698 126.351 196.831 123.121 196.48C112.996 195.596 107.253 199.697 99.7596 205.92C97.8076 207.565 95.8795 209.233 93.9695 210.926C92.1388 212.451 92.1388 212.451 89.5868 213.73C85.085 212.776 81.8206 208.321 78.6556 205.226C78.0671 204.65 78.0671 204.65 77.4667 204.063C72.0589 198.754 66.8353 193.295 61.7073 187.717C59.7313 185.571 57.7165 183.465 55.6885 181.367C49.0823 174.506 42.6814 167.459 36.4504 160.258C35.043 158.64 33.6156 157.043 32.1754 155.453C26.6796 149.34 21.3596 143.096 16.2729 136.64C15.9155 136.188 15.558 135.736 15.1897 135.271C12.0416 131.238 12.0416 131.238 11.9878 128.057C12.7265 124.975 13.9542 123.813 16.2598 121.737C17.3671 120.553 17.3671 120.553 17.1623 118.995C16.7799 117.13 16.1734 115.778 15.273 114.102C14.795 113.194 14.795 113.194 14.3074 112.268C13.9646 111.621 13.6219 110.975 13.2688 110.309C8.32048 100.704 4.21574 91.0573 1.80968 80.5036C1.68763 79.969 1.56559 79.4344 1.43984 78.8836C-1.94478 62.5581 0.614817 45.2613 9.35766 31.1201C12.4458 26.5716 16.1083 22.7601 20.0908 18.9876C20.9701 18.0616 20.9701 18.0616 21.8673 17.1169C41.7629 -0.75711 69.1202 -4.77169 93.5706 5.72843Z" fill="#BB8A52" fill-opacity="0.1"/>
</svg>
