<svg width="311" height="407" viewBox="0 0 311 407" fill="none" xmlns="http://www.w3.org/2000/svg">
<path d="M214.533 52.2062C251.943 48.9719 310.148 62.0191 310.148 62.0191V11.1702C310.148 11.1702 252.05 1.03469 214.533 2.24939C186.662 3.15175 166.725 4.33092 143.817 11.1702C120.909 18.0096 93.9328 19.2867 68.1214 35.2565C38.4812 53.5954 27.9496 79.8608 11.3497 100.379C11.3497 100.379 -3.31039 134.544 4.37778 154.796C11.7314 174.167 23.925 183.761 44.2175 193.156C62.112 201.44 75.4202 196.996 95.0132 201.184C123.727 207.323 146.773 203.108 166.725 222.594C176.607 232.246 181.387 239.269 184.653 252.033C189.138 269.564 180.706 279.909 176.685 297.53C173.398 311.934 168.746 319.515 166.725 334.105C164.569 349.663 159.717 359.883 166.725 374.249C173.111 387.342 181.204 393.98 195.609 400.119C218.221 409.757 235.212 399.84 259.352 393.875C280.178 388.729 310.148 374.249 310.148 374.249V289.501C310.148 289.501 245.116 313.995 229.472 289.501C224.131 281.137 223.487 275.05 223.496 265.415C223.515 247.019 239.804 240.291 245.408 222.594C248.01 214.378 251.948 209.61 250.388 201.184C248.262 189.698 238.881 186.025 229.472 177.99C209.452 160.893 191.848 158.921 166.725 148.551C148.356 140.969 130.989 145.245 118.917 130.71C112.015 122.399 108.822 116.089 108.957 105.731C109.088 95.7013 111.93 89.4837 118.917 81.645C127.497 72.0195 137.191 71.4103 149.793 66.4795C173.653 57.1438 188.616 54.4467 214.533 52.2062Z" fill="#6D9773" fill-opacity="0.2" stroke="#FBFDF8" stroke-width="4.29677"/>
</svg>
