<svg width="228" height="332" viewBox="0 0 228 332" fill="none" xmlns="http://www.w3.org/2000/svg">
<path d="M70.1594 289.317C42.7087 291.964 0 281.286 0 281.286L0 322.901C0 322.901 42.6302 331.196 70.1594 330.202C90.6098 329.463 105.239 328.498 122.048 322.901C138.857 317.304 158.651 316.258 177.591 303.189C199.34 288.18 207.068 266.684 219.248 249.892C219.248 249.892 230.005 221.931 224.364 205.356C218.968 189.503 210.021 181.651 195.131 173.963C182 167.183 172.235 170.82 157.859 167.392C136.79 162.368 119.879 165.818 105.239 149.87C97.9879 141.971 94.4805 136.224 92.0842 125.777C88.7932 111.43 94.9803 102.963 97.9308 88.5422C100.343 76.7534 103.756 70.5494 105.239 58.6085C106.821 45.8759 110.381 37.5116 105.239 25.7545C100.553 15.0392 94.6144 9.60654 84.0451 4.58185C67.4531 -3.306 54.9854 4.81088 37.2722 9.69247C21.9908 13.9039 0 25.7545 0 25.7545L0 95.113C0 95.113 47.7184 75.0664 59.197 95.113C63.1165 101.958 63.5891 106.939 63.5819 114.825C63.5682 129.88 51.616 135.386 47.5037 149.87C45.5944 156.594 42.7051 160.496 43.8496 167.392C45.4099 176.793 52.2933 179.799 59.197 186.374C73.8876 200.367 86.8045 201.98 105.239 210.467C118.718 216.672 131.461 213.173 140.319 225.069C145.383 231.871 147.726 237.035 147.627 245.511C147.531 253.72 145.446 258.809 140.319 265.224C134.023 273.101 126.91 273.6 117.663 277.635C100.156 285.276 89.1761 287.483 70.1594 289.317Z" fill="#6D9773" fill-opacity="0.2" stroke="#FBFDF8" stroke-width="2.56931"/>
</svg>
