<svg width="200" height="200" viewBox="0 0 200 200" fill="none" xmlns="http://www.w3.org/2000/svg">
<g clip-path="url(#clip0_1_171)">
<path d="M162.557 157.117C161.977 157.891 161.977 157.891 161.386 158.68C161.901 158.68 162.417 158.68 162.948 158.68C162.819 158.164 162.69 157.649 162.557 157.117Z" fill="#0C3E2E"/>
<path d="M130.917 175.086L128.573 177.039C128.523 177.322 125.887 176.765 125.839 177.039H125.057L124.667 175.867C123.747 176.072 122.912 176.332 122.03 176.673L121.151 177.039L119.979 173.914H119.198L117.636 177.039L116.464 175.867C114.901 175.867 114.901 175.867 114.022 176.258L113.339 176.649L111.776 175.086L110.604 177.039C109.823 176.258 109.823 176.258 109.091 175.941C108.261 175.867 108.261 175.867 107.382 176.429L106.698 177.039L105.917 173.914H105.136L104.501 174.891L103.964 175.867L103.573 175.086C102.792 175.086 102.792 175.086 101.962 175.867L101.229 176.649L98.8856 174.305L98.4949 176.649L96.9324 174.696L94.5887 176.649L94.1981 175.086L91.8543 177.039C91.8543 175.826 91.6436 175.339 91.0731 174.305L89.2664 176.112L88.3387 177.039L87.5574 175.086H86.7762L85.9949 176.649L84.0418 175.086L82.0887 177.039C81.6489 175.657 81.1782 174.437 80.5262 173.133L78.5731 176.649L77.0106 175.867C76.2598 176.133 76.2598 176.133 75.5457 176.6L74.2762 177.43L73.1043 173.914H72.3231L71.5418 177.43L69.1981 175.477L67.2449 177.039L65.6824 175.086L64.95 175.867C64.2151 176.738 64.2151 176.738 63.3387 176.649L62.9481 175.867C61.7762 175.867 61.7762 175.867 60.9217 176.453L60.2137 177.039L59.0418 173.914H58.2606L57.6258 174.891L57.0887 175.867L56.6981 175.086L53.9637 177.039C53.9637 176.018 53.9637 176.018 52.7918 174.305H52.0106L51.6199 176.258C51.0828 175.477 51.0828 175.477 50.4481 174.696H49.6668C49.2506 175.528 48.7717 176.01 48.1043 176.649L47.7137 175.086H46.9324L46.1512 177.039H45.3699C45.2235 175.892 45.2235 175.892 44.9793 174.696L44.1981 174.305C43.7004 175.101 43.1783 175.882 42.6356 176.649H41.8543L41.0731 175.086H40.2918L39.5106 176.649L37.5574 175.086L35.6043 177.039C35.1645 175.657 34.6938 174.437 34.0418 173.133L32.0887 176.649L30.5262 175.867C29.7755 176.133 29.7755 176.133 29.0614 176.6L27.7918 177.43L26.6199 173.914H25.8387L24.6668 177.039C23.7611 176.436 22.9065 175.947 21.9324 175.477L19.9793 177.039L19.1981 175.086H18.4168L17.6356 176.649L16.5614 176.185C15.2918 175.867 15.2918 175.867 14.3641 176.405L13.7293 177.039L12.5574 173.914H11.7762L11.1414 174.891L10.6043 175.867L10.2137 175.086L7.47932 176.649L6.30745 174.305H5.5262V177.43L3.9637 178.211C3.87953 179.249 3.80251 179.923 4.39302 180.807C5.13557 181.336 5.13557 181.336 6.28081 181.484L7.71472 181.485C8.56469 181.491 9.41435 181.495 10.2643 181.491C10.8924 181.489 11.5205 181.488 12.1486 181.49C13.8796 181.497 15.6105 181.5 17.3415 181.497C19.2349 181.494 21.1282 181.496 23.0215 181.5C26.731 181.507 30.4405 181.51 34.15 181.508C37.1982 181.506 40.2464 181.505 43.2946 181.507L44.6038 181.508L47.2382 181.51C55.4827 181.516 63.7272 181.515 71.9716 181.51C79.5373 181.506 87.103 181.509 94.6687 181.518C102.463 181.528 110.258 181.534 118.053 181.531C122.423 181.53 126.794 181.529 131.165 181.535C134.917 181.541 138.67 181.544 142.423 181.539L143.098 181.537C144.793 181.534 146.488 181.531 148.183 181.535C149.957 181.54 151.731 181.544 153.505 181.539C154.157 181.536 154.809 181.534 155.462 181.532C160.022 181.562 164.039 181.157 168.417 179.774C174.401 177.386 178.832 172.879 181.526 167.078C183.998 161.075 183.924 154.934 181.625 148.914C179.315 143.616 174.884 139.471 169.589 137.196C164.661 135.404 159.063 135.312 154.222 137.356C148.728 139.863 145.116 143.45 142.855 149.11C141.604 153.264 141.543 158.424 143.316 162.423L143.807 163.367C145.372 166.492 147.213 168.616 150.106 170.568C154.153 173.003 158.798 173.848 163.436 172.84C167.729 171.409 171.151 168.861 173.495 164.93C175.339 161.271 175.645 157.47 174.618 153.504C173.452 150.162 171.508 147.549 168.417 145.789C164.804 144.027 161.454 143.61 157.601 144.837C154.417 146.141 152.208 148.154 150.776 151.302C149.923 154.234 150.072 157.424 151.229 160.242C152.766 162.635 154.714 164.219 157.479 164.93C160.138 165.239 162.092 164.97 164.34 163.49C165.798 162.106 166.745 160.853 166.964 158.848C166.986 157.007 167.046 155.464 165.805 153.992C164.291 152.683 163.174 152.029 161.141 152.064C159.668 152.473 159.121 152.735 158.261 153.992C157.878 155.419 157.674 156.289 158.285 157.655C159.042 158.289 159.042 158.289 160.287 158.582L161.386 158.68L162.557 157.117L162.948 158.68H161.386V159.852L160.604 159.461L159.823 160.242L159.042 159.461L157.87 160.242L157.479 158.68L155.917 159.071V157.117V156.727L156.307 155.555L154.745 155.164L156.307 154.383V153.602L155.526 153.211L156.698 152.821L156.307 151.649L157.87 151.258L157.479 150.086L159.042 150.477L159.823 148.914L160.311 149.5C160.995 150.086 160.995 150.086 162.557 150.086L163.729 149.305L164.12 150.086L165.292 150.477V149.696H166.073V150.867H168.026L166.854 152.039L168.417 152.821L168.026 153.211L169.589 154.383L168.807 154.774V155.555L169.979 155.946L168.807 157.508L170.761 157.899L169.198 159.071L169.979 160.242L168.417 161.024L169.589 162.196L167.636 162.586L168.417 163.758H166.464L166.854 165.711L166.073 166.102L165.292 167.274L164.12 166.883L163.729 168.446H162.948L162.167 166.883L161.386 168.446L160.604 167.274L159.823 168.446C159.382 167.469 159.241 166.983 158.261 166.492L157.479 168.055L156.698 166.102L155.526 167.274L155.136 166.102L153.964 166.492L153.573 164.539L152.011 166.102L151.62 164.539L149.667 164.93C149.667 163.923 149.667 163.923 148.495 161.805L147.714 161.414V159.852L148.495 158.68L147.714 157.899L148.495 157.508V156.727L147.323 155.946L148.886 154.774L146.932 153.602L148.495 152.821L146.932 150.867H148.104V150.086L149.276 149.696L148.495 148.133H150.057L149.667 145.789L152.011 146.571L151.62 144.617L152.792 145.399L153.182 143.836L154.354 144.227L155.136 142.664L156.307 143.055L156.698 141.883C157.138 142.323 157.138 142.323 158.651 143.055L159.042 141.492L159.432 142.274L160.604 142.664L160.995 141.102L161.776 142.274L162.167 141.102H162.948V142.274L163.729 143.055L164.901 141.102L165.682 142.274L166.854 141.492L168.026 142.664L169.198 142.274V143.446H170.37L170.761 145.399L172.714 144.227L173.886 147.742H175.057H175.839C175.057 148.524 175.057 148.524 175.057 149.696L177.401 150.086V150.867L175.839 151.649L177.792 152.039L176.229 153.992L178.182 154.383L176.229 156.727L178.573 157.117C177.597 157.655 177.597 157.655 176.62 158.289V159.071L178.964 159.852C178.625 160.738 178.625 160.738 177.572 161.073L176.62 161.414L178.182 162.977L176.229 163.758L177.011 166.492H175.448L175.839 168.055H173.104V171.18L170.761 170.789V173.133L168.417 172.352V175.086C167.538 174.647 167.538 174.647 165.682 173.914V176.258L161.776 174.696L161.386 177.039L158.261 175.477L157.479 176.649H156.698C155.799 175.709 155.264 175.31 153.964 175.086L152.792 177.039L150.839 175.086C149.916 176.073 149.407 176.605 148.104 177.039L146.932 175.477L145.761 177.039C144.87 176.644 144.87 176.644 143.954 175.648L143.026 174.696L141.854 176.649L140.682 175.086L139.12 176.649C138.67 175.685 138.32 175.068 137.557 174.305L135.604 176.649L133.651 175.086L132.87 177.039L130.917 175.086Z" fill="#0C3E2E"/>
<path d="M117.622 83.8096C121.236 86.7292 124.124 90.7732 126.988 94.3992C127.951 95.5968 128.944 96.7676 129.94 97.9378C131.462 99.7245 132.943 101.536 134.4 103.376C135.343 104.543 136.314 105.684 137.289 106.824C138.775 108.565 140.209 110.337 141.61 112.147C143.154 114.138 144.761 116.061 146.42 117.957C152.53 124.944 152.53 124.944 152.488 128.213C152.306 129.849 151.292 131.089 150.057 132.117C148.623 132.596 147.246 132.792 145.761 132.508C143.929 131.483 142.646 130.192 141.342 128.577L140.782 127.9C140.225 127.225 139.672 126.546 139.12 125.867L138.185 124.731C137.093 123.402 136.009 122.068 134.925 120.734L134.756 120.527C133.162 118.571 131.55 116.632 129.916 114.71C128.405 112.934 126.934 111.132 125.486 109.304C124.33 107.872 123.135 106.474 121.938 105.076C120.62 103.529 119.383 101.938 118.197 100.286L117.636 99.6956H116.464L116.262 98.3971C116.167 97.8289 116.071 97.2607 115.975 96.6926L115.846 95.8389C115.527 93.9998 115.087 92.8551 113.729 91.4924C111.868 90.3975 110.412 90.1323 108.319 90.461C106.585 90.978 105.525 92.0098 104.598 93.5676C103.858 96.7519 104.646 100.065 105.136 103.236C105.284 104.2 105.43 105.165 105.575 106.13L105.773 107.415C106.183 111.027 106.183 111.027 105.203 112.453L104.257 113.392C102.932 114.758 101.822 116.039 100.839 117.664L101.696 117.893C103.644 118.418 105.575 118.949 107.479 119.617L107.595 120.56L107.772 121.815L107.937 123.051C108.751 126.208 111.032 127.715 113.534 129.554L114.63 130.374C115.385 130.939 116.141 131.501 116.899 132.063C117.977 132.862 119.052 133.666 120.126 134.472L121.137 135.231C121.794 135.724 122.45 136.217 123.106 136.711C124.529 137.781 125.954 138.845 127.401 139.883L128.11 140.401C128.713 140.842 129.32 141.276 129.928 141.711C132.169 143.872 133.055 147.198 134.085 150.072L134.525 151.295C134.829 152.144 135.132 152.993 135.434 153.843C135.896 155.137 136.366 156.427 136.836 157.718C137.132 158.547 137.427 159.375 137.722 160.204L138.148 161.362C139.13 164.168 139.785 167.024 138.558 169.886C137.552 171.903 136.089 173.02 134.042 173.914L126.327 172.523C123.826 170.925 123.005 167.008 122.055 164.368C121.867 163.87 121.679 163.373 121.49 162.875C120.391 159.936 119.426 156.993 118.59 153.968C116.421 144.294 116.421 144.294 110.615 136.849C108.513 135.941 106.33 135.469 104.085 135.068C99.9485 134.298 96.0321 132.734 92.0864 131.308C90.7522 130.831 89.4134 130.37 88.0719 129.914C87.234 129.625 86.3963 129.335 85.5585 129.046L84.3995 128.658C81.4318 127.615 78.7468 126.339 77.2059 123.475C75.6173 119.227 76.7396 114.602 78.5511 110.6C83.8516 99.6344 93.547 86.4172 105.526 82.1174C109.526 80.826 114.185 81.4798 117.622 83.8096Z" fill="black"/>
<path d="M4.26147 192.258C69.8748 192.258 135.488 192.258 203.09 192.258C203.871 196.946 203.871 196.946 203.871 200.071C137.871 200.071 71.8708 200.071 3.87085 200.071C3.87085 195.774 3.87085 195.774 4.26147 192.258Z" fill="black"/>
<path d="M83.2035 131.701C84.6397 132.078 86.0701 132.474 87.5004 132.873C87.7765 132.949 88.0526 133.025 88.3371 133.103C102.168 136.926 102.168 136.926 104.425 140.362C105.351 142.363 105.699 144.361 105.86 146.545C105.96 147.266 105.96 147.266 106.063 148.002C106.241 150.391 105.804 152.475 104.297 154.357C101.648 156.515 98.6181 158.171 95.6546 159.851C94.9804 160.236 94.3061 160.622 93.632 161.008C93.1734 161.27 92.7147 161.532 92.2559 161.794C89.9952 163.085 87.746 164.396 85.4984 165.71C84.9307 166.041 84.9307 166.041 84.3516 166.379C82.3269 167.56 80.305 168.746 78.2856 169.937C77.6508 170.31 77.6508 170.31 77.0033 170.69C76.1952 171.165 75.3878 171.642 74.5813 172.12C68.7882 175.52 68.7882 175.52 65.2347 175.061C62.7812 174.284 61.4209 173.059 59.8636 171.057C58.9147 168.969 58.7578 166.909 59.3265 164.685C60.7716 161.089 64.5979 159.153 67.847 157.409C68.6434 156.97 69.4394 156.531 70.235 156.091C70.6372 155.869 71.0393 155.648 71.4536 155.419C73.3555 154.358 75.2283 153.249 77.1 152.136C77.4513 151.927 77.8027 151.718 78.1647 151.503C78.8557 151.093 79.5465 150.682 80.2372 150.271C81.8578 149.309 83.4827 148.354 85.1078 147.399C85.3915 147.233 85.6751 147.066 85.9674 146.894C86.6086 146.517 87.2498 146.14 87.891 145.764C87.651 143.969 87.1751 142.414 86.5223 140.727C86.4274 140.48 86.3326 140.232 86.2349 139.978C85.9345 139.196 85.6312 138.415 85.3275 137.634C85.023 136.846 84.7191 136.058 84.4159 135.269C84.1424 134.558 83.8671 133.849 83.5917 133.139C83.2035 132.092 83.2035 132.092 83.2035 131.701Z" fill="black"/>
<path d="M142.537 64.7755C144.571 66.4423 145.976 68.0335 146.801 70.551C147.542 72.6195 148.672 73.3748 150.493 74.5198C153.206 76.2829 155.773 78.4346 157.03 81.4641C157.177 82.758 157.177 82.758 157.03 83.8078C156.023 84.8151 155.578 84.7283 154.174 84.76C147.171 84.6343 140.688 79.7537 136.007 74.9211C135.779 74.6794 135.779 74.6794 135.546 74.4328C137.529 78.4893 140.884 81.6177 144.53 84.1984C143.424 86.6546 141.511 88.0031 139.062 89.0324C135.048 90.3373 131.011 90.1378 127.209 88.3183C123.67 86.2575 121.511 83.5545 120.36 79.633C119.477 75.5755 119.934 72.0994 121.956 68.4666C124.186 65.0689 127.098 63.0431 131.069 62.0839C135.303 61.4185 139.054 62.2705 142.537 64.7755ZM134.765 73.2609C135.155 74.0422 135.155 74.0422 135.155 74.0422L134.765 73.2609Z" fill="black"/>
<path d="M113.038 87.9449C115.447 90.24 115.595 93.8282 116.033 96.969C116.101 97.4359 116.168 97.9027 116.238 98.3838C116.38 99.3665 116.52 100.349 116.658 101.333C116.87 102.836 117.088 104.338 117.306 105.84C117.444 106.798 117.581 107.755 117.717 108.712C117.782 109.16 117.847 109.608 117.913 110.07C117.972 110.49 118.031 110.91 118.092 111.342C118.144 111.709 118.196 112.076 118.249 112.454C118.367 113.602 118.378 114.722 118.36 115.875C118.581 115.976 118.802 116.078 119.03 116.183C120.006 116.7 120.829 117.301 121.705 117.976C122.046 118.237 122.387 118.499 122.738 118.768C123.098 119.046 123.458 119.324 123.829 119.61C124.573 120.181 125.318 120.752 126.062 121.324C126.42 121.598 126.777 121.873 127.146 122.156C128.313 123.049 129.487 123.932 130.665 124.81C132.307 126.039 133.943 127.275 135.572 128.521C135.786 128.684 136.001 128.847 136.222 129.015C138.927 131.091 138.927 131.091 139.454 132.671C139.605 134.519 139.642 135.428 138.794 137.09C137.481 138.617 136.616 139.238 134.595 139.459C131.887 139.174 129.981 137.547 127.906 135.919C127.318 135.463 126.73 135.008 126.142 134.553C125.831 134.312 125.521 134.071 125.201 133.822C123.473 132.485 121.734 131.163 119.996 129.839C119.647 129.574 119.299 129.308 118.94 129.034C116.727 127.347 114.503 125.678 112.256 124.037C109.79 122.069 108.643 120.577 108.183 117.467C108.112 117 108.042 116.533 107.97 116.052C107.86 115.295 107.86 115.295 107.749 114.523C107.671 113.995 107.594 113.467 107.516 112.94C107.353 111.832 107.192 110.724 107.033 109.616C106.831 108.211 106.623 106.807 106.413 105.404C106.251 104.312 106.092 103.22 105.935 102.128C105.824 101.363 105.709 100.598 105.595 99.8342C104.365 91.1515 104.365 91.1515 105.821 88.9923C107.858 86.877 110.426 86.7842 113.038 87.9449Z" fill="black"/>
<path d="M41.8788 30.2628C44.3087 32.1733 45.52 34.6083 46.4839 37.5001C46.8053 41.8933 46.476 45.0519 43.6519 48.5352C41.0472 51.3291 38.1097 52.7124 34.2769 52.8809C30.5728 52.7896 27.6473 51.4954 24.9782 48.9411C22.2882 45.7758 21.5675 42.3285 21.8746 38.2813C22.71 34.3374 24.9609 31.6935 28.1246 29.2969C32.1872 26.6951 38.0714 27.7268 41.8788 30.2628ZM27.0259 33.9112C25.1866 36.1915 24.3736 38.2588 24.4716 41.1896C24.8426 43.8858 26.2026 46.1687 28.1246 48.0469C30.9605 49.7818 33.6355 50.5257 36.9258 49.7742C40.0222 48.723 42.0267 46.6875 43.5542 43.8233C44.0703 40.5331 44.1859 37.5589 42.1871 34.7657C40.4297 32.7309 38.358 30.9963 35.6029 30.7664C31.8298 30.6823 29.6276 31.1256 27.0259 33.9112Z" fill="#FFBA00"/>
<path d="M27.0259 33.9112C25.1866 36.1915 24.3736 38.2588 24.4716 41.1896C24.8426 43.8858 26.2026 46.1687 28.1246 48.0469C30.9605 49.7818 33.6355 50.5257 36.9258 49.7742C40.0222 48.723 42.0267 46.6875 43.5542 43.8233C44.0703 40.5331 44.1859 37.5589 42.1871 34.7657C40.4297 32.7309 38.358 30.9963 35.6029 30.7664C31.8298 30.6823 29.6276 31.1256 27.0259 33.9112Z" fill="#FFBA00"/>
</g>
<defs>
<clipPath id="clip0_1_171">
<rect width="200" height="200" fill="white"/>
</clipPath>
</defs>
</svg>
