<svg width="200" height="200" viewBox="0 0 200 200" fill="none" xmlns="http://www.w3.org/2000/svg">
<g clip-path="url(#clip0_1_150)">
<path d="M66.0156 105.469C67.8188 106.86 69.4968 108.396 71.1816 109.926C72.1204 110.767 73.0919 111.562 74.0722 112.354C76.7174 114.498 79.3063 116.707 81.9007 118.913C84.4234 121.056 86.9589 123.179 89.5263 125.269C90.9688 126.455 92.3911 127.663 93.814 128.873C95.1486 130.005 96.4941 131.122 97.8515 132.227C100.064 134.029 102.241 135.872 104.415 137.72C105.1 138.3 105.787 138.878 106.474 139.455C106.702 139.647 106.931 139.838 107.166 140.036C107.6 140.402 108.036 140.767 108.471 141.131C111.592 143.76 111.592 143.76 112.109 145.312C110.468 145.85 108.823 146.376 107.178 146.899C106.713 147.052 106.248 147.204 105.769 147.361C105.319 147.503 104.868 147.645 104.404 147.792C103.784 147.991 103.784 147.991 103.151 148.195C101.82 148.464 100.919 148.385 99.6093 148.047C98.677 147.363 98.677 147.363 97.7783 146.484C96.4385 145.216 95.089 144.004 93.6523 142.847C91.9669 141.483 90.3136 140.088 88.6718 138.672C86.7147 136.985 84.7347 135.333 82.7285 133.705C81.4907 132.69 80.2714 131.654 79.0527 130.615C77.0931 128.947 75.0991 127.335 73.0468 125.781C72.9849 126.083 72.923 126.385 72.8591 126.697C72.1498 129.863 71.281 132.235 68.9697 134.546C67.8378 135.236 66.9367 135.425 65.625 135.547C65.2352 133.553 65.1367 131.604 65.0665 129.581C65.0377 128.873 65.0087 128.165 64.9795 127.457C64.9352 126.35 64.8925 125.244 64.8538 124.137C64.8155 123.062 64.7706 121.988 64.7247 120.914C64.7149 120.587 64.7051 120.26 64.6949 119.923C64.5737 117.269 64.0838 115.06 62.3779 112.939C60.6845 111.601 59.3289 111.236 57.2021 111.401C55.724 111.622 54.6745 111.897 53.5156 112.891C51.0739 116.35 51.5487 120.051 51.7669 124.12C51.793 124.642 51.8189 125.165 51.8446 125.687C51.9127 127.06 51.9841 128.432 52.0561 129.804C52.1135 130.907 52.1686 132.01 52.2236 133.113C52.2905 134.453 52.3583 135.792 52.4261 137.132C52.4392 137.392 52.4523 137.652 52.4658 137.92C52.5881 140.336 52.7124 142.751 52.8888 145.165C52.9219 145.632 52.9219 145.632 52.9556 146.108C53.0125 146.885 53.075 147.661 53.1381 148.438C53.1249 149.611 52.9724 150.197 52.3437 151.172C52.6886 151.082 53.0334 150.993 53.3887 150.9C54.9898 150.754 55.4361 151.066 56.7169 152C57.0906 152.268 57.4642 152.535 57.8493 152.81C58.4353 153.244 58.4353 153.244 59.0332 153.687C59.8468 154.271 60.6606 154.856 61.4746 155.44C61.8598 155.72 62.245 155.999 62.6419 156.288C63.7672 157.1 64.9052 157.879 66.0644 158.643C66.4018 158.866 66.7391 159.09 67.0867 159.32C67.8395 159.815 68.5927 160.309 69.347 160.801C70.4841 161.544 71.619 162.291 72.7539 163.037C73.127 163.279 73.5002 163.522 73.8847 163.771C74.2306 163.999 74.5765 164.227 74.9328 164.462C75.2466 164.667 75.5605 164.873 75.8838 165.084C76.1078 165.262 76.3317 165.441 76.5625 165.625C76.5625 165.883 76.5625 166.141 76.5625 166.406C75.7418 166.8 74.9196 167.19 74.0966 167.578C73.6389 167.796 73.1812 168.013 72.7096 168.237C71.4843 168.75 71.4843 168.75 70.3125 168.75C70.5541 169.051 70.7958 169.351 71.0449 169.661C72.089 171.239 72.725 172.69 72.6562 174.609C71.5087 177.907 69.3014 180.829 67.3616 183.71C66.3865 185.169 65.4801 186.663 64.5858 188.173C64.439 188.42 64.2921 188.667 64.1408 188.922C63.8496 189.413 63.5585 189.904 63.2676 190.395C58.1344 199.055 58.1344 199.055 55.0781 200C52.07 200.311 49.6837 200.352 47.2656 198.437C45.4237 196.635 44.5197 194.92 44.3359 192.358C44.4762 187.996 47.8257 183.877 50.0488 180.273C50.3412 179.796 50.6333 179.319 50.9253 178.842C51.3655 178.122 51.8058 177.402 52.2468 176.683C53.6034 174.47 54.9415 172.247 56.2744 170.02C56.4721 169.689 56.6698 169.359 56.8735 169.019C57.3169 168.279 57.7601 167.538 58.2031 166.797C57.7918 166.927 57.3806 167.057 56.9569 167.191C55.4092 167.679 53.8586 168.157 52.307 168.633C51.6399 168.839 50.9736 169.047 50.3081 169.258C43.1894 171.512 37.8287 171.738 30.9814 168.286C26.835 165.943 22.8028 162.471 21.2768 157.811C20.6615 155.191 21.0921 152.777 22.2656 150.391C24.0524 147.632 26.4175 145.475 28.8467 143.3C36.19 136.708 41.2843 129.402 43.93 119.83C44.0299 119.471 44.1298 119.111 44.2327 118.74C44.4261 118.035 44.6147 117.328 44.7977 116.62C46.047 111.993 48.4919 108.17 52.629 105.583C56.8311 103.429 61.8652 102.849 66.0156 105.469Z" fill="black"/>
<path d="M95.2149 79.7363C97.5451 81.681 99.7345 84.2206 100.488 87.207C101.112 89.1783 102.857 89.7679 104.582 90.686C108.08 92.6583 112.06 95.8036 113.672 99.6094C113.843 101.001 113.843 101.001 113.672 102.344C112.59 103.392 111.818 103.505 110.327 103.662C102.385 103.278 93.9891 97.9542 88.7757 92.2241C88.3373 91.7019 87.9158 91.1655 87.5001 90.625C89.301 95.5711 94.1779 99.8417 98.4376 102.734C96.9495 106.075 93.9401 108.085 90.6251 109.375C86.0933 110.9 80.874 110.704 76.5626 108.594C75.4169 107.908 74.4297 107.141 73.4376 106.25C73.0833 105.949 73.0833 105.949 72.7219 105.643C69.4618 102.674 67.8419 98.8594 67.4805 94.5343C67.2815 89.3473 68.7833 85.1091 72.2657 81.25C78.7067 75.1173 87.9657 74.5813 95.2149 79.7363ZM86.7188 89.4531C87.1095 90.2344 87.1095 90.2344 87.1095 90.2344L86.7188 89.4531Z" fill="black"/>
<path d="M166.406 150.391C167.651 153.399 167.802 156.134 167.578 159.375C167.449 159.633 167.32 159.891 167.187 160.156C170.152 160.156 173.117 160.156 176.172 160.156C176.198 164.146 176.22 168.136 176.233 172.126C176.239 173.978 176.247 175.831 176.26 177.684C176.273 179.472 176.28 181.26 176.283 183.048C176.285 183.73 176.289 184.412 176.296 185.094C176.304 186.05 176.305 187.005 176.305 187.961C176.309 188.243 176.313 188.524 176.318 188.814C176.307 190.526 176.052 191.608 175 192.969C174.076 193.431 173.5 193.416 172.469 193.429C171.926 193.436 171.926 193.436 171.371 193.444C170.978 193.447 170.586 193.449 170.181 193.452C169.778 193.456 169.376 193.459 168.961 193.462C168.108 193.467 167.255 193.472 166.402 193.475C165.096 193.481 163.79 193.499 162.485 193.516C161.657 193.52 160.829 193.523 160.001 193.526C159.609 193.533 159.218 193.539 158.815 193.546C158.451 193.545 158.086 193.544 157.71 193.543C157.389 193.545 157.069 193.548 156.739 193.55C155.469 193.275 155.043 192.858 154.297 191.797C154.151 190.716 154.099 189.794 154.119 188.715C154.119 188.406 154.119 188.097 154.119 187.779C154.12 186.76 154.132 185.742 154.144 184.723C154.147 184.016 154.149 183.309 154.151 182.601C154.157 180.742 154.172 178.882 154.19 177.022C154.205 175.124 154.213 173.226 154.22 171.327C154.237 167.603 154.265 163.88 154.297 160.156C157.648 160.156 161 160.156 164.453 160.156C164.58 155.6 164.58 155.6 163.672 151.172C164.706 150.601 165.193 150.391 166.406 150.391Z" fill="#BB8A52"/>
<path d="M59.7655 112.5C61.5268 113.381 62.4236 114.26 63.2812 116.016C63.4183 117.247 63.4183 117.247 63.4089 118.648C63.4096 119.181 63.4106 119.713 63.4117 120.246C63.4104 120.526 63.4092 120.806 63.4079 121.095C63.4078 122.598 63.4477 124.1 63.4818 125.602C63.5242 127.506 63.5548 129.408 63.5332 131.313C63.2497 138.289 63.2497 138.289 65.7562 144.527C67.9405 146.48 70.3776 147.785 73.0216 149.012C74.9645 149.982 76.6727 151.256 78.4179 152.539C79.0533 152.989 79.6895 153.438 80.3268 153.885C80.619 154.09 80.9113 154.296 81.2123 154.508C82.3286 155.285 83.4592 156.038 84.5947 156.787C86.1037 157.788 87.6045 158.799 89.0868 159.839C89.6012 160.198 89.6012 160.198 90.126 160.564C91.3637 161.627 92.0511 162.624 92.3843 164.23C92.4395 166.536 92.0703 167.744 90.4708 169.423C89.1789 170.451 87.7181 170.494 86.1318 170.471C84.2597 170.167 82.8798 169.037 81.372 167.944C81.0185 167.698 80.665 167.452 80.3007 167.199C79.5552 166.68 78.8119 166.158 78.0708 165.632C76.641 164.624 75.1942 163.642 73.7457 162.66C72.6745 161.934 71.6061 161.205 70.5383 160.474C69.0469 159.453 67.5535 158.436 66.0583 157.422C54.5945 149.64 54.5945 149.64 54.0794 147.559C53.8921 146.397 53.8106 145.266 53.7543 144.09C53.7308 143.615 53.7074 143.141 53.6832 142.651C53.6596 142.14 53.636 141.629 53.6117 141.103C53.5861 140.567 53.5603 140.031 53.5345 139.495C53.4807 138.371 53.428 137.247 53.376 136.123C53.3101 134.698 53.2417 133.274 53.1724 131.849C53.1189 130.741 53.0666 129.632 53.0146 128.524C52.9781 127.748 52.9405 126.972 52.9029 126.197C52.8371 124.756 52.7823 123.316 52.7343 121.875C52.7158 121.381 52.6973 120.887 52.6782 120.377C52.6676 119.897 52.6569 119.417 52.6459 118.922C52.6288 118.28 52.6288 118.28 52.6113 117.626C52.8074 115.681 53.4921 114.437 54.9316 113.135C56.6172 112.323 57.9272 112.174 59.7655 112.5Z" fill="black"/>
<path d="M117.093 145.891C117.376 145.889 117.66 145.887 117.952 145.885C120.313 145.947 122.025 146.61 123.999 147.876C125.005 149.445 124.954 150.933 124.609 152.734C122.639 157.098 118.667 159.843 114.624 162.085C113.791 162.557 112.959 163.029 112.126 163.501C111.724 163.728 111.321 163.955 110.906 164.189C109.892 164.771 108.896 165.371 107.906 165.991C107.638 166.158 107.37 166.326 107.094 166.498C106.611 166.802 106.129 167.11 105.651 167.422C104.792 167.957 104.126 168.353 103.101 168.384C101.947 167.751 101.148 166.823 100.293 165.845C100.114 165.648 99.9344 165.451 99.7498 165.249C98.4375 163.778 98.4375 163.778 98.4375 162.891C98.1646 163.003 97.8917 163.116 97.6105 163.232C97.255 163.377 96.8995 163.522 96.5332 163.672C96.1797 163.817 95.8262 163.962 95.462 164.111C94.5312 164.453 94.5312 164.453 93.75 164.453C92.5781 161.865 92.5781 161.865 92.5781 160.547C93.7383 160.031 94.8984 159.516 96.0938 158.984C95.9648 156.535 95.8359 154.086 95.7031 151.562C98.7307 150.427 101.765 149.416 104.853 148.466C105.485 148.27 106.117 148.07 106.747 147.865C110.197 146.749 113.448 145.909 117.093 145.891Z" fill="black"/>
<path d="M68.75 82.4219C69.0591 83.3176 69.2055 83.8049 68.8782 84.7107C68.7392 84.9544 68.6002 85.1981 68.457 85.4492C67.8602 86.534 67.4355 87.5336 67.0898 88.7207C66.6273 89.9938 66.1311 90.5348 65.0131 91.2857C63.0881 92.6671 61.5228 94.3148 59.8877 96.0205C55.6862 100.315 51.7312 103.926 45.5017 104.306C42.3194 104.285 39.4525 103.526 36.9888 101.463C35.4055 99.8288 34.375 98.3978 34.375 96.0938C35.3715 96.2783 35.9564 96.4979 36.792 97.0947C38.6542 98.0465 40.3533 97.9825 42.337 97.3679C46.2791 95.625 49.3768 92.2343 52.124 88.9984C56.6089 83.7287 61.8044 81.3998 68.75 82.4219Z" fill="black"/>
<path d="M131.671 175.038C132.422 175.391 132.422 175.391 132.831 176.146C133.793 179.572 133.99 182.552 132.812 185.938C133.215 185.978 133.618 186.018 134.033 186.06C135.547 186.328 135.547 186.328 136.597 186.865C138.174 187.639 139.733 187.972 141.444 188.342C142.645 188.691 143.525 189.103 144.531 189.844C144.849 191.089 144.849 191.089 144.922 192.188C143.108 192.881 141.403 193.142 139.478 193.237C139.187 193.253 138.896 193.27 138.596 193.286C136.223 193.395 133.907 193.243 131.54 193.04C130 192.965 128.509 193.055 126.978 193.188C123.845 193.432 119.677 193.627 116.797 192.188C116.821 191.113 116.821 191.113 117.188 189.844C119.105 188.352 121.147 187.925 123.489 187.393C124.441 187.152 125.242 186.869 126.123 186.45C127.415 185.908 128.302 185.836 129.688 185.938C130.723 182.313 130.523 179.422 129.688 175.781C130.859 175 130.859 175 131.671 175.038Z" fill="#BB8A52"/>
<path d="M118.359 165.234C122.117 165.018 125.754 165.672 128.688 168.149C129.884 169.329 130.406 170.204 130.615 171.875C130.413 173.49 129.906 174.504 128.638 175.537C126.899 176.007 125.417 175.752 123.808 175.032C121.113 173.331 119.878 170.456 118.75 167.578C118.48 166.235 118.48 166.235 118.359 165.234Z" fill="#0C3E2E"/>
<path d="M178.907 142.187C177.955 146.111 176.48 149.617 173.026 151.929C171.946 152.519 171.158 152.761 169.922 152.734C168.392 152.224 167.74 151.797 166.822 150.464C166.333 148.999 166.31 148.337 166.797 146.875C168.49 144.31 170.668 143.219 173.609 142.48C175.391 142.126 177.094 142.13 178.907 142.187Z" fill="#0C3E2E"/>
<path d="M152.344 140.625C155.897 140.42 159.724 140.99 162.5 143.359C163.794 144.597 164.575 145.494 164.673 147.29C164.433 148.969 164.093 149.614 162.891 150.781C161.63 151.412 160.779 151.328 159.375 151.172C156.253 150.058 155.065 147.662 153.701 144.854C153.057 143.456 152.559 142.162 152.344 140.625Z" fill="#0C3E2E"/>
<path d="M144.532 166.797C143.783 171.085 142.201 173.945 138.672 176.562C137.422 177.188 136.123 177.148 134.766 176.953C133.668 176.252 133.005 175.774 132.422 174.609C132.202 173.231 132.184 172.277 132.909 171.056C134.78 168.744 136.834 167.753 139.624 166.895C141.258 166.735 142.892 166.768 144.532 166.797Z" fill="#0C3E2E"/>
<path d="M25.1943 15.6251C26.5615 16.3575 26.5615 16.3575 27.5381 17.1876C27.5381 17.4454 27.5381 17.7032 27.5381 17.9689C27.2118 17.9772 27.2118 17.9772 26.8789 17.9856C23.5501 18.1937 21.557 19.4867 19.3594 21.9483C18.7298 22.6983 18.2101 23.3437 17.7725 24.2189C17.5504 24.1433 17.3283 24.0678 17.0995 23.99C12.8727 22.5646 9.90566 21.6513 5.66309 23.4376C5.7385 21.8162 5.95344 21.2013 7.0791 19.9952C8.29691 18.9557 9.5655 18.8642 11.1318 18.7501C12.5952 18.9683 12.5952 18.9683 14.0371 19.3116C14.7615 19.4801 14.7615 19.4801 15.5004 19.6519C15.8635 19.741 16.2265 19.8302 16.6006 19.922C16.8745 19.5675 17.1484 19.213 17.4307 18.8478C19.4863 16.3775 21.9642 15.1689 25.1943 15.6251Z" fill="#FFBA00"/>
<path d="M50.9756 0.000154972C51.8952 0.567287 52.2831 1.06281 52.9287 1.95328C52.6739 1.99155 52.4191 2.02982 52.1566 2.06925C48.5233 2.69087 46.3774 4.32866 43.9443 7.0314C43.6865 7.41812 43.4287 7.80484 43.1631 8.20328C41.9032 8.00006 40.7853 7.65396 39.5986 7.2023C37.0218 6.32903 34.4913 6.19584 31.957 7.22672C31.6589 7.42008 31.3608 7.61344 31.0537 7.81265C31.1619 6.26185 31.3533 5.57676 32.3721 4.37027C33.802 3.17868 34.9176 3.01989 36.7544 3.0336C38.5543 3.20891 40.2688 3.76512 41.9912 4.29703C42.1659 4.08504 42.3407 3.87305 42.5207 3.65463C45.041 0.672122 46.9232 -0.680304 50.9756 0.000154972Z" fill="#FFBA00"/>
<path d="M47.0693 25.0001C48.0267 25.5584 48.6274 26.1479 49.4131 26.9532C49.4131 27.0821 49.4131 27.211 49.4131 27.3439C48.9055 27.36 48.3979 27.3761 47.875 27.3927C45.1976 27.7037 43.3178 29.0199 41.5533 31.0151C40.8916 31.8592 40.2572 32.7117 39.6475 33.5939C39.4254 33.5183 39.2033 33.4428 38.9745 33.365C34.7477 31.9396 31.7807 31.0263 27.5381 32.8126C27.6091 31.2858 27.8566 30.561 28.8076 29.3458C30.6917 27.9305 33.1261 28.3022 35.3506 28.5157C36.4369 28.7084 37.4205 28.966 38.4756 29.297C38.677 29.015 38.8784 28.733 39.0859 28.4425C41.2054 25.997 43.7101 24.4118 47.0693 25.0001Z" fill="#FFBA00"/>
<path d="M80.6885 145.776C82.6408 147.24 83.8107 148.773 84.375 151.172C84.4321 152.224 84.4114 153.242 84.375 154.297C82.4959 154.297 81.6249 153.624 80.1514 152.588C79.6317 152.231 79.1119 151.874 78.5919 151.517C78.3242 151.332 78.0564 151.146 77.7805 150.956C76.9495 150.388 76.1099 149.836 75.2655 149.289C74.996 149.113 74.7265 148.938 74.4489 148.757C73.9271 148.418 73.4041 148.08 72.8801 147.744C72.2709 147.344 71.6801 146.917 71.0938 146.484C71.0938 146.227 71.0938 145.969 71.0938 145.703C74.0888 144.589 77.841 144.081 80.6885 145.776Z" fill="black"/>
<path d="M167.578 132.812C169.296 134.218 169.55 136.157 169.824 138.257C169.966 139.998 169.856 141.343 169.141 142.969C168.29 143.969 167.736 144.479 166.406 144.606C165.023 144.522 164.28 144.345 163.257 143.384C162.607 141.26 162.766 139.311 163.765 137.315C164.859 135.622 166.091 134.169 167.578 132.812Z" fill="#0C3E2E"/>
<path d="M134.375 158.203C135.591 161.07 136.209 164.169 135.304 167.226C134.961 167.871 134.961 167.871 133.984 168.75C132.428 169.152 131.269 168.986 129.883 168.188C128.987 166.658 128.937 165.399 129.297 163.672C130.261 161.548 131.784 158.203 134.375 158.203Z" fill="#0C3E2E"/>
<path d="M79.2969 167.578C80.0939 168.074 80.879 168.592 81.6406 169.141C81.25 170.313 81.25 170.313 80.5726 170.732C80.2851 170.857 79.9975 170.982 79.7012 171.111C79.3888 171.248 79.0763 171.385 78.7544 171.526C78.2616 171.735 78.2616 171.735 77.7588 171.948C77.4317 172.092 77.1047 172.236 76.7677 172.384C74.338 173.438 74.338 173.438 73.4375 173.438C72.2656 170.85 72.2656 170.85 72.2656 169.531C73.068 169.126 73.8745 168.729 74.6826 168.335C75.1313 168.113 75.5799 167.891 76.0422 167.662C77.4127 167.162 77.9462 167.097 79.2969 167.578Z" fill="black"/>
</g>
<defs>
<clipPath id="clip0_1_150">
<rect width="200" height="200" fill="white"/>
</clipPath>
</defs>
</svg>
