<svg width="200" height="200" viewBox="0 0 200 200" fill="none" xmlns="http://www.w3.org/2000/svg">
<path d="M48.8286 105.859C50.6933 107.64 52.3023 109.713 52.3717 112.387C52.3626 112.682 52.3535 112.977 52.3442 113.281C51.9429 113.084 51.5416 112.886 51.1281 112.683C46.6668 110.518 46.6668 110.518 41.7973 110.547C40.0585 111.4 38.9892 112.476 37.8911 114.062C37.2933 115.856 37.1327 117.725 37.7812 119.533C39.0391 121.881 40.87 123.068 43.2439 124.126C43.6588 124.313 44.0737 124.5 44.5012 124.692C44.9302 124.883 45.3592 125.073 45.8012 125.268C46.6581 125.652 47.5146 126.036 48.3708 126.42C48.7491 126.589 49.1274 126.757 49.5171 126.93C50.3911 127.344 50.3911 127.344 50.7817 127.734C50.6881 131.122 49.9541 134.527 49.3993 137.862C49.0243 140.206 48.7582 142.523 48.6104 144.893C48.5934 145.16 48.5764 145.427 48.5589 145.703C48.5177 146.354 48.4777 147.005 48.4379 147.656C48.7301 147.578 49.0222 147.5 49.3232 147.419C52.0965 146.677 54.8714 145.941 57.648 145.211C59.075 144.836 60.5013 144.459 61.9262 144.076C63.3052 143.706 64.6857 143.342 66.0674 142.982C66.5904 142.845 67.1128 142.705 67.6346 142.564C71.4081 141.54 75.7019 140.428 79.4682 142.017C81.6861 143.339 83.1658 145.227 83.9848 147.656C84.235 148.976 84.4043 150.304 84.5755 151.635C84.629 152.035 84.6824 152.435 84.7375 152.847C84.9133 154.167 85.0855 155.488 85.2574 156.808C85.3787 157.727 85.5002 158.646 85.6219 159.565C85.8763 161.491 86.1289 163.418 86.3803 165.344C86.7022 167.811 87.0279 170.277 87.3549 172.743C87.6063 174.641 87.8559 176.539 88.1049 178.437C88.2243 179.346 88.3442 180.256 88.4647 181.165C88.6328 182.437 88.7987 183.709 88.964 184.982C89.0139 185.356 89.0638 185.731 89.1152 186.116C89.571 189.663 89.6843 192.507 87.8911 195.703C86.2384 197.658 84.0668 198.997 81.5053 199.342C78.7555 199.474 76.4127 198.874 74.3016 197.053C71.2656 193.786 71.0634 189.444 70.5159 185.223C70.4303 184.583 70.3444 183.944 70.2582 183.304C70.079 181.968 69.9023 180.633 69.7275 179.297C69.5035 177.585 69.2754 175.874 69.0458 174.164C68.8264 172.528 68.6091 170.892 68.3919 169.257C68.3504 168.945 68.3089 168.634 68.2662 168.314C68.1492 167.433 68.0336 166.553 67.9186 165.672C67.8527 165.171 67.7868 164.671 67.719 164.155C67.5786 162.891 67.5786 162.891 67.5786 161.328C67.1622 161.445 66.7458 161.562 66.3169 161.683C62.1162 162.861 57.9049 163.99 53.6797 165.076C52.6725 165.335 51.6661 165.598 50.6596 165.86C50.0076 166.028 49.3556 166.196 48.7035 166.363C48.2609 166.479 48.2609 166.479 47.8094 166.598C42.0478 168.066 34.8628 168.6 29.5171 165.552C25.6146 162.752 23.8302 158.923 23.0473 154.297C22.5453 150.883 22.5707 147.437 22.5629 143.995C22.5591 143.007 22.547 142.02 22.5346 141.033C22.493 134.737 23.3646 128.75 25.1469 122.705C25.2673 122.29 25.3877 121.875 25.5117 121.447C25.8537 120.285 26.2047 119.126 26.5629 117.969C26.6506 117.685 26.7383 117.402 26.8286 117.11C28.4693 111.972 31.2816 108.235 35.9379 105.469C39.9674 103.478 45.121 103.041 48.8286 105.859Z" fill="black"/>
<path d="M142.188 16.7969C143.734 16.7969 145.281 16.7969 146.875 16.7969C146.61 23.7459 146.084 30.6721 145.552 37.6045C145.37 39.9839 145.189 42.3634 145.009 44.743C144.946 45.567 144.883 46.391 144.819 47.2149C144.781 47.7123 144.743 48.2097 144.704 48.7222C144.671 49.1589 144.637 49.5956 144.603 50.0456C144.546 50.9404 144.531 51.8378 144.531 52.7344C150.433 50.7575 153.717 48.2576 157.175 43.1183C158.222 41.5898 159.363 40.1356 160.498 38.6719C160.914 38.1274 161.33 37.5826 161.746 37.0377C164.93 32.8816 164.93 32.8816 166.016 31.6406C166.145 31.6406 166.273 31.6406 166.406 31.6406C166.719 34.2949 165.809 35.5441 164.209 37.5977C163.983 37.8984 163.757 38.1992 163.524 38.5091C163.043 39.1481 162.56 39.7853 162.075 40.4207C161.324 41.412 160.588 42.4131 159.856 43.4189C159.616 43.7478 159.376 44.0768 159.13 44.4157C158.896 44.7358 158.663 45.0559 158.423 45.3857C157.58 46.5426 156.727 47.6897 155.859 48.8281C155.678 49.0756 155.497 49.323 155.31 49.5779C153.776 51.5453 152.003 52.5339 149.78 53.6133C149.129 53.9404 148.477 54.268 147.826 54.5959C147.54 54.7361 147.254 54.8762 146.96 55.0205C146.674 55.1684 146.388 55.3163 146.094 55.4687C145.743 55.6272 145.391 55.7857 145.029 55.9489C144.03 56.5795 144.03 56.5795 143.858 57.7905C143.843 58.2575 143.828 58.7245 143.813 59.2056C143.803 59.462 143.793 59.7185 143.783 59.9826C143.685 63.1576 143.802 66.3341 143.921 69.5068C143.942 70.12 143.962 70.7331 143.983 71.3463C144.032 72.8247 144.085 74.303 144.141 75.7812C144.889 75.5239 145.637 75.2665 146.385 75.0092C146.862 74.8452 147.34 74.6812 147.831 74.5122C148.877 74.1524 149.921 73.7894 150.964 73.424C155.413 71.8696 155.413 71.8696 157.48 71.2997C161.863 70.0532 164.5 67.6457 167.635 64.3984C169.065 62.964 170.612 61.6383 172.191 60.3703C174.247 58.6695 175.675 56.8561 177.109 54.6173C177.328 54.284 177.547 53.9506 177.773 53.6072C178.464 52.5541 179.149 51.4971 179.834 50.4394C180.528 49.3742 181.223 48.3098 181.92 47.2466C182.352 46.5877 182.781 45.9274 183.209 45.2656C183.402 44.9694 183.595 44.6733 183.794 44.3682C183.963 44.1066 184.133 43.8451 184.307 43.5757C184.766 42.9687 184.766 42.9687 185.547 42.5781C185.648 44.3321 185.463 45.3574 184.573 46.8689C184.364 47.2308 184.155 47.5928 183.94 47.9657C183.713 48.347 183.486 48.7283 183.252 49.1211C182.781 49.9259 182.311 50.7311 181.842 51.5366C181.608 51.9358 181.374 52.335 181.133 52.7464C180.533 53.7936 179.965 54.8491 179.413 55.9219C177.478 59.6627 175.64 62.237 172.266 64.8437C171.557 65.4203 170.849 65.9981 170.142 66.5771C169.804 66.8465 169.465 67.1159 169.117 67.3934C167.964 68.3337 167.964 68.3337 166.971 69.3652C163.831 72.526 160.553 74.1055 156.445 75.7324C155.847 75.9777 155.25 76.2238 154.652 76.4709C153.504 76.9446 152.353 77.4124 151.199 77.8744C149.383 78.6031 147.582 79.3682 145.783 80.1393C144.922 80.4687 144.922 80.4687 144.141 80.4687C144.166 80.6927 144.192 80.9166 144.218 81.1473C144.514 83.8894 144.654 86.6242 144.751 89.3799C144.768 89.8365 144.784 90.2931 144.801 90.7636C144.941 94.8851 144.962 99.0017 144.922 103.125C145.169 103.011 145.416 102.897 145.671 102.78C146.413 102.439 147.156 102.097 147.899 101.756C148.752 101.364 149.606 100.97 150.459 100.576C152.405 99.6797 154.35 98.7936 156.334 97.9843C159.597 96.6443 162.101 95.323 164.636 92.7841C165.994 91.4284 167.482 90.2614 168.98 89.0655C169.938 88.2991 169.938 88.2991 170.763 87.3962C171.12 87.0609 171.12 87.0609 171.484 86.7187C172.809 86.7818 173.275 86.9465 174.219 87.8906C172.218 89.9278 170.215 91.9319 168.042 93.7851C166.589 95.0538 165.197 96.3911 163.797 97.7173C160.747 100.426 157.224 102.398 153.662 104.346C152.818 104.81 151.975 105.275 151.132 105.74C150.764 105.942 150.396 106.143 150.017 106.351C149.429 106.688 149.429 106.688 148.828 107.031C148.57 107.144 148.311 107.256 148.044 107.372C147.119 107.827 146.438 108.256 145.703 108.984C145.218 110.426 145.244 111.833 145.247 113.344C145.236 113.785 145.224 114.227 145.213 114.681C145.179 116.148 145.167 117.614 145.155 119.081C145.136 120.114 145.115 121.148 145.093 122.181C145.042 124.638 145.007 127.095 144.978 129.552C144.945 132.28 144.896 135.007 144.845 137.734C144.761 142.21 144.688 146.687 144.622 151.164C144.545 156.377 144.444 161.589 144.324 166.801C144.316 167.144 144.308 167.487 144.3 167.84C144.175 173.354 143.998 178.865 143.75 184.375C144.241 184.512 144.733 184.649 145.239 184.79C145.516 184.867 145.792 184.944 146.077 185.023C146.95 185.233 146.95 185.233 148.047 184.766C148.79 185.008 148.79 185.008 149.614 185.411C149.91 185.553 150.206 185.696 150.51 185.842C150.817 185.994 151.124 186.147 151.44 186.304C151.752 186.455 152.063 186.605 152.384 186.761C153.154 187.134 153.921 187.511 154.688 187.891C154.688 188.535 154.688 189.18 154.688 189.844C156.147 190.265 156.147 190.265 157.544 189.77C158.83 189.382 159.11 189.595 160.278 190.186C160.754 190.459 161.229 190.733 161.719 191.016C161.461 192.176 161.203 193.336 160.938 194.531C160.551 194.531 160.164 194.531 159.766 194.531C159.677 194.765 159.588 194.999 159.497 195.239C158.792 196.414 158.315 196.757 157.031 197.266C155.685 197.322 154.415 197.275 153.125 196.875C152.868 196.486 152.868 196.486 152.605 196.089C152.019 195.23 152.019 195.23 151.05 195.118C150.53 195.117 150.53 195.117 150 195.116C149.432 195.105 149.432 195.105 148.853 195.094C148.458 195.093 148.063 195.093 147.656 195.093C146.875 195.089 146.094 195.081 145.312 195.067C144.966 195.067 144.62 195.066 144.263 195.066C143.181 194.893 142.902 194.546 142.188 193.75C140.197 193.754 138.327 194.445 136.597 195.386C135.59 195.93 135.257 196.098 134.082 196.045C133.236 195.716 132.435 195.363 131.641 194.922C131.641 195.18 131.641 195.437 131.641 195.703C130.966 195.902 130.29 196.096 129.614 196.289C129.05 196.452 129.05 196.452 128.474 196.619C127.401 196.862 126.486 196.923 125.391 196.875C125.262 196.617 125.133 196.359 125 196.094C123.989 195.884 123.019 195.729 121.997 195.605C121.72 195.565 121.444 195.525 121.159 195.483C119.339 195.255 118.149 195.439 116.406 196.094C114.033 196.179 111.927 195.435 109.766 194.531C109.646 193.254 109.681 192.216 110.156 191.016C111.842 189.718 113.885 188.838 116.04 189.111C117.188 189.453 117.188 189.453 117.969 189.844C117.969 188.941 117.969 188.039 117.969 187.109C119.578 186.605 120.964 186.226 122.656 186.328C122.656 186.07 122.656 185.812 122.656 185.547C123.859 185.021 125.064 184.502 126.27 183.984C126.61 183.835 126.951 183.686 127.303 183.533C127.632 183.392 127.962 183.251 128.302 183.105C128.605 182.975 128.908 182.844 129.219 182.709C130.078 182.422 130.078 182.422 131.641 182.422C132.46 176.609 132.928 170.76 133.435 164.914C133.562 163.451 133.691 161.989 133.819 160.526C134.061 157.763 134.303 155 134.544 152.237C134.976 147.285 135.409 142.332 135.843 137.379C135.995 135.645 136.147 133.91 136.298 132.176C136.369 131.357 136.441 130.539 136.512 129.72C136.599 128.726 136.686 127.732 136.772 126.738C136.972 124.458 137.196 122.19 137.5 119.922C137.053 119.795 137.053 119.795 136.597 119.666C129.988 117.257 125.124 113.675 121.25 107.846C120.47 106.683 119.624 105.58 118.774 104.468C118.371 103.921 118.371 103.921 117.96 103.363C117.447 102.686 116.915 102.022 116.367 101.373C114.289 98.9065 114.289 98.9065 114.282 97.2412C114.339 96.8625 114.395 96.4839 114.453 96.0937C115.743 97.074 116.787 98.0338 117.773 99.3164C118.75 100.568 119.732 101.814 120.738 103.043C120.951 103.303 121.164 103.563 121.383 103.832C121.829 104.374 122.276 104.915 122.724 105.454C123.704 106.642 124.591 107.782 125.388 109.105C128.072 113.534 132.866 114.954 137.5 116.797C137.82 114.809 137.965 112.861 138.007 110.848C138.018 110.384 138.018 110.384 138.03 109.911C138.055 108.899 138.077 107.886 138.1 106.874C138.116 106.169 138.133 105.463 138.151 104.758C138.195 102.908 138.238 101.057 138.28 99.2073C138.323 97.3167 138.368 95.4262 138.413 93.5356C138.501 89.8311 138.587 86.1265 138.672 82.4219C138.134 82.248 138.134 82.248 137.586 82.0706C136.14 81.5763 134.792 80.9378 133.424 80.2628C133.148 80.128 132.872 79.9932 132.588 79.8544C131.998 79.5664 131.409 79.2778 130.821 78.9886C129.59 78.3844 128.359 77.7835 127.127 77.1824C126.51 76.8813 125.893 76.5801 125.277 76.2787C122.7 75.0194 120.117 73.7719 117.529 72.5342C117.184 72.3683 116.838 72.2024 116.482 72.0315C116.158 71.8766 115.834 71.7218 115.5 71.5622C115.194 71.4148 114.888 71.2675 114.573 71.1157C113.974 70.8414 113.365 70.5868 112.749 70.3531C110.286 69.3996 109.05 68.0525 107.422 66.0156C106.947 65.4934 106.466 64.9761 105.98 64.4638C105.734 64.2039 105.489 63.9441 105.236 63.6764C104.983 63.409 104.729 63.1417 104.468 62.8662C103.922 62.2885 103.376 61.7107 102.831 61.1328C102.557 60.8428 102.283 60.5527 102 60.2539C100.678 58.8506 99.3619 57.4408 98.0469 56.0303C97.8104 55.7767 97.574 55.5231 97.3304 55.2619C96.7878 54.6799 96.2455 54.0978 95.7031 53.5156C96.2467 52.1566 96.7315 51.7654 98.0469 51.1719C98.298 51.4425 98.298 51.4425 98.5543 51.7187C108.925 63.3697 108.925 63.3697 122.394 70.6034C125.107 71.5312 127.712 72.7312 130.336 73.8821C131.821 74.5305 133.312 75.1639 134.804 75.798C137.387 76.8965 137.387 76.8965 138.281 77.3437C138.931 72.0896 138.931 72.0896 136.942 67.4248C135.985 66.4025 134.997 65.4209 133.984 64.4531C129.98 60.3682 128.932 56.0334 127.662 50.5506C127.348 49.2361 127.002 47.9349 126.642 46.6324C126.53 46.225 126.418 45.8175 126.303 45.3978C126.09 44.6263 125.876 43.8553 125.66 43.0849C125.567 42.7379 125.474 42.3909 125.378 42.0334C125.296 41.7319 125.213 41.4303 125.127 41.1197C124.978 40.0842 125.135 39.2894 125.391 38.2812C125.777 38.1523 126.164 38.0234 126.562 37.8906C126.63 38.1439 126.697 38.3972 126.767 38.6582C127.472 41.3038 128.19 43.9457 128.916 46.5857C129.185 47.5703 129.45 48.5558 129.712 49.5421C130.091 50.9632 130.481 52.3807 130.873 53.7979C131.044 54.456 131.044 54.456 131.219 55.1274C132.002 57.8972 132.951 59.4915 135.156 61.3281C135.891 62.1496 136.602 62.9854 137.312 63.8275C137.862 64.4965 137.862 64.4965 138.672 64.8437C138.688 64.6175 138.703 64.3912 138.72 64.1581C139.104 58.6412 139.488 53.1243 139.874 47.6074C140.06 44.9395 140.247 42.2715 140.432 39.6035C140.611 37.0276 140.791 34.4518 140.972 31.876C141.04 30.8944 141.109 29.9128 141.177 28.9312C141.272 27.5539 141.369 26.1767 141.466 24.7994C141.493 24.3957 141.521 23.9919 141.55 23.5759C141.71 21.3082 141.921 19.0547 142.188 16.7969Z" fill="#BB8A52"/>
<path d="M49.9997 167.188C50.9953 169.717 51.9893 172.248 52.9823 174.779C53.3204 175.64 53.6587 176.501 53.9974 177.361C54.4841 178.598 54.9696 179.836 55.4548 181.073C55.6065 181.458 55.7583 181.843 55.9147 182.24C56.0554 182.599 56.1962 182.959 56.3412 183.329C56.4652 183.645 56.5893 183.961 56.7171 184.286C57.8241 187.355 57.5353 190.006 56.2497 192.969C55.0677 194.969 53.2705 195.986 51.1716 196.875C49.8519 197.131 48.5776 197.139 47.2363 197.122C46.8598 197.124 46.4833 197.127 46.0954 197.13C44.8611 197.137 43.6275 197.129 42.3932 197.121C41.5299 197.121 40.6667 197.122 39.8034 197.124C37.9984 197.125 36.1937 197.119 34.3888 197.108C32.0801 197.095 29.7717 197.097 27.463 197.105C25.6818 197.109 23.9007 197.105 22.1196 197.099C21.2685 197.097 20.4174 197.097 19.5663 197.1C18.3753 197.102 17.1848 197.094 15.9939 197.083C15.4711 197.087 15.4711 197.087 14.9378 197.091C12.2824 197.051 10.2227 196.381 8.1937 194.63C8.01948 194.412 7.84525 194.194 7.66575 193.97C7.48548 193.753 7.30521 193.536 7.11948 193.312C5.60126 190.986 5.54327 188.636 5.85911 185.938C6.65795 183.165 8.03889 181.591 10.4749 180.101C12.03 179.347 13.3921 179.249 15.1117 179.253C15.5573 179.253 16.003 179.253 16.4621 179.253C16.9411 179.255 17.4201 179.257 17.9136 179.259C18.4055 179.259 18.8975 179.26 19.4045 179.26C20.7094 179.262 22.0142 179.266 23.3191 179.27C24.6519 179.274 25.9847 179.276 27.3175 179.278C29.9304 179.282 32.5432 179.289 35.156 179.297C35.0258 178.97 34.8957 178.642 34.7615 178.305C34.28 177.093 33.7997 175.88 33.3202 174.667C33.1122 174.141 32.9038 173.616 32.6949 173.091C32.3951 172.337 32.0969 171.583 31.799 170.828C31.619 170.374 31.439 169.92 31.2535 169.452C30.8591 168.359 30.8591 168.359 30.8591 167.578C33.7738 167.93 33.7738 167.93 35.0827 168.172C39.3276 168.812 43.4097 168.338 47.566 167.444C48.8279 167.188 48.8279 167.188 49.9997 167.188Z" fill="black"/>
<path d="M62.6464 74.1943C63.6718 75 63.6718 75 64.4805 75.9781C66.0241 77.2932 67.3717 77.4385 69.3359 77.7344C78.0957 79.2744 78.0957 79.2744 80.8593 82.4219C81.3476 83.5937 81.3476 83.5937 81.2499 84.7656C79.4344 86.9962 76.9885 87.5309 74.2187 87.8906C67.2739 88.4081 59.8536 87.9013 53.5156 84.7656C58.0081 88.2847 63.6879 89.6838 69.1406 91.0156C68.6451 94.729 66.5548 97.9208 63.6459 100.258C59.8519 102.943 55.6204 103.947 51.0009 103.296C46.7781 102.38 43.2957 100.274 40.6249 96.875C38.0497 92.8038 37.3029 88.5337 38.1347 83.7891C39.0693 80.161 41.1589 76.8778 44.1406 74.6094C50.1534 71.0697 56.5109 70.6721 62.6464 74.1943Z" fill="black"/>
<path d="M94.5308 109.497C94.9175 109.823 94.9175 109.823 95.3121 110.156C95.5296 110.309 95.7471 110.462 95.9712 110.62C96.9748 112.006 97.2835 113.576 97.2484 115.256C96.8428 117.708 95.3032 118.917 93.3589 120.312C91.5374 121.354 89.6593 122.263 87.7681 123.169C86.9762 123.555 86.1851 123.942 85.394 124.33C84.8711 124.586 84.348 124.842 83.8245 125.097C81.7299 126.12 79.6664 127.195 77.6119 128.296C76.4822 128.893 75.3505 129.486 74.2183 130.078C73.9229 130.234 73.6275 130.39 73.3232 130.55C72.4379 131.013 71.5472 131.462 70.6539 131.909C70.3949 132.047 70.1359 132.184 69.8691 132.326C67.8336 133.32 66.2453 133.425 64.0621 132.812C62.2175 132.093 60.444 131.24 58.6665 130.371C58.1536 130.125 57.6404 129.879 57.1269 129.633C56.333 129.254 55.5394 128.874 54.7466 128.492C52.9166 127.611 51.0759 126.758 49.2259 125.92C48.7271 125.693 48.2283 125.466 47.7295 125.239C46.7898 124.812 45.8487 124.388 44.9065 123.966C39.8615 121.657 39.8615 121.657 38.5249 119.409C38.0296 117.279 37.9455 115.847 38.9888 113.94C40.9169 111.572 40.9169 111.572 42.9277 111.186C46.5079 110.913 49.484 112.731 52.5874 114.282C53.1562 114.561 53.7254 114.839 54.2949 115.116C54.576 115.253 54.8571 115.39 55.1467 115.531C55.4271 115.667 55.7074 115.803 55.9963 115.944C56.2753 116.08 56.5543 116.215 56.8418 116.355C57.6852 116.765 58.5296 117.172 59.3746 117.578C59.6612 117.716 59.9478 117.854 60.2431 117.996C61.0847 118.396 61.93 118.787 62.7773 119.176C63.0295 119.297 63.2817 119.418 63.5416 119.542C65.1957 120.286 66.2316 120.443 67.9683 119.922C68.9165 119.501 69.8154 119.068 70.7286 118.582C70.9894 118.447 71.2502 118.311 71.5188 118.172C72.0754 117.882 72.6312 117.591 73.1863 117.299C74.0542 116.842 74.9245 116.39 75.7955 115.939C78.3415 114.618 80.8761 113.282 83.3812 111.885C83.7452 111.685 84.1093 111.485 84.4843 111.278C85.1345 110.919 85.7808 110.552 86.4216 110.175C88.9776 108.767 91.7886 108.297 94.5308 109.497Z" fill="black"/>
<path d="M116.406 49.2188C117.578 49.6094 117.578 49.6094 118.178 50.6485C120.153 55.0475 121.439 58.5132 119.94 63.2751C119.424 64.27 118.939 64.6775 117.969 65.2344C116.136 65.5651 114.546 65.486 112.891 64.624C111.502 62.9311 111.239 61.246 111.328 59.1064C111.813 55.3552 114.037 52.0749 116.406 49.2188Z" fill="#0C3E2E"/>
<path d="M108.594 68.3594C109.779 69.6027 110.11 70.376 110.352 72.0703C110.113 73.7369 109.71 74.5219 108.594 75.7812C104.833 77.7288 100.631 77.3865 96.6797 76.1719C95.9603 75.9204 95.2427 75.6635 94.5312 75.3906C94.5312 73.8255 95.0881 73.3642 96.1014 72.2305C99.4981 68.9544 103.883 66.4108 108.594 68.3594Z" fill="#0C3E2E"/>
<path d="M101.562 89.8438C101.949 89.8438 102.336 89.8438 102.734 89.8438C104.271 92.5962 104.427 95.6501 103.636 98.6969C102.869 100.617 101.839 102.106 100 103.125C98.1526 103.912 96.2749 104.534 94.3359 105.054C93.2752 105.382 93.2752 105.382 92.8635 106.427C91.9701 107.742 91.3028 107.817 89.7705 108.13C89.1338 108.267 89.1338 108.267 88.4842 108.406C88.1594 108.468 87.8346 108.53 87.5 108.594C87.6931 106.681 88.6472 105.365 89.7217 103.833C90.0769 103.315 90.4314 102.796 90.7852 102.277C90.958 102.024 91.1308 101.771 91.3088 101.51C92.3179 100.003 93.2258 98.4398 94.1406 96.875C96.4609 97.2617 96.4609 97.2617 98.8281 97.6562C99.9556 96.1807 99.9556 96.1807 100.456 94.574C100.556 94.1586 100.556 94.1586 100.658 93.7347C100.723 93.4497 100.788 93.1647 100.854 92.8711C100.924 92.58 100.993 92.289 101.064 91.9891C101.234 91.2748 101.399 90.5594 101.562 89.8438ZM96.4844 100C96.4844 100.387 96.4844 100.773 96.4844 101.172C96.8711 101.043 97.2578 100.914 97.6562 100.781C97.6562 100.523 97.6562 100.266 97.6562 100C97.2695 100 96.8828 100 96.4844 100Z" fill="black"/>
<path d="M142.578 0C142.965 0 143.352 0 143.75 0C146.797 3.38557 148.211 6.81804 148.255 11.322C148.002 12.7578 147.487 13.4134 146.485 14.4531C145.119 15.136 143.678 15.0578 142.188 14.8438C140.55 13.8333 140.085 12.7203 139.649 10.9131C139.085 6.92158 140.665 3.41924 142.578 0Z" fill="#0C3E2E"/>
<path d="M86.7192 37.5C90.1005 38.031 93.0536 39.8782 95.1649 42.5491C96.3851 44.3846 96.9757 45.7324 96.6801 47.9492C96.0019 49.4187 95.5635 50.0081 94.141 50.7812C92.1742 51.0622 91.4434 51.0443 89.7465 50C87.9671 48.2982 86.8135 45.8149 86.6748 43.3537C86.6769 43.0836 86.6789 42.8136 86.681 42.5354C86.6823 42.2408 86.6835 41.9463 86.6848 41.6428C86.6881 41.3391 86.6914 41.0355 86.6947 40.7227C86.6965 40.413 86.6983 40.1033 86.7001 39.7842C86.7047 39.0228 86.7117 38.2614 86.7192 37.5Z" fill="#0C3E2E"/>
<path d="M105.078 41.4062C107.753 43.4258 109.864 45.9988 110.938 49.2188C111.163 51.2993 111.309 52.9532 110.132 54.7363C108.758 55.6135 107.88 55.8594 106.25 55.8594C104.603 55.1855 103.911 54.3067 103.125 52.7344C101.973 49.278 103.033 45.8678 104.297 42.5781C104.555 42.1914 104.813 41.8047 105.078 41.4062Z" fill="#0C3E2E"/>
<path d="M98.2468 58.8806C98.9843 59.5078 99.2748 60.0299 99.6094 60.9375C99.7291 62.6809 99.5219 64.0522 98.4619 65.4541C96.4062 66.419 94.5128 66.3983 92.3614 65.6845C89.9171 64.5613 87.7107 62.9692 85.9375 60.9375C85.6461 60.0601 85.6461 60.0601 85.5469 59.375C89.7329 57.8403 94.1022 56.6441 98.2468 58.8806Z" fill="#0C3E2E"/>
<path d="M158.985 22.6562C158.875 25.9602 157.893 29.1251 155.57 31.578C154.204 32.625 152.891 33.2031 151.172 33.2031C149.561 32.5286 148.722 31.6895 148.047 30.0781C147.972 28.3894 148.575 27.411 149.585 26.123C152.009 23.5037 155.508 22.5772 158.985 22.6562Z" fill="#0C3E2E"/>
<path d="M138.672 26.5625C139.811 27.5083 139.835 27.6575 140.015 29.248C139.957 30.3697 139.793 30.9744 139.331 32.0312C137.906 33.0916 136.857 33.1107 135.109 33.0246C132.145 32.4655 130.155 30.2967 128.247 28.0975C127.716 27.3163 127.508 26.7051 127.344 25.7812C131.09 24.354 135.292 24.3308 138.672 26.5625Z" fill="#0C3E2E"/>
<path d="M156.25 9.76562C157.164 12.5088 157.223 16.8133 155.981 19.4824C155.072 20.7109 154.561 21.362 153.125 21.875C151.864 21.8235 151.008 21.5949 149.878 21.0449C148.866 19.9205 148.853 19.0751 148.828 17.5781C149.351 14.5377 151.476 12.6128 153.822 10.7849C155.283 9.76562 155.283 9.76562 156.25 9.76562Z" fill="#0C3E2E"/>
<path d="M130.469 12.8906C134.039 13.5793 137.035 14.5209 139.478 17.334C140.017 18.8449 140.023 19.8755 139.844 21.4844C139.258 22.4609 139.258 22.4609 138.281 23.0469C136.729 23.3014 135.799 23.3792 134.401 22.6562C132.09 20.9072 131.13 18.4813 130.679 15.6769C130.582 14.7471 130.508 13.8245 130.469 12.8906Z" fill="#0C3E2E"/>
<path d="M171.312 96.4523C173.4 97.4342 175.41 98.6479 176.953 100.391C176.953 100.648 176.953 100.906 176.953 101.172C176.335 101.425 175.717 101.677 175.098 101.929C174.753 102.069 174.409 102.21 174.054 102.354C171.651 103.261 169.266 103.588 166.846 102.588C165.625 101.953 165.625 101.953 164.844 101.172C164.625 99.9768 164.644 98.8534 164.844 97.6563C166.478 95.4953 168.939 95.6009 171.312 96.4523Z" fill="#0C3E2E"/>
<path d="M179.688 76.1719C179.73 77.2872 179.761 78.4009 179.785 79.5166C179.805 79.9853 179.805 79.9853 179.825 80.4634C179.862 82.7672 179.422 84.0314 178.125 85.9375C177.964 86.1873 177.803 86.437 177.637 86.6943C176.428 87.4284 175.169 87.3801 173.828 87.1094C172.632 86.3281 172.632 86.3281 171.875 85.1562C171.838 82.8445 172.334 81.4956 173.828 79.6875C177.447 76.1719 177.447 76.1719 179.688 76.1719Z" fill="#0C3E2E"/>
<path d="M166.406 77.3438C166.793 77.3438 167.18 77.3438 167.578 77.3438C167.832 77.8964 168.084 78.45 168.335 79.0039C168.475 79.3121 168.616 79.6202 168.761 79.9377C169.764 82.3727 169.964 84.8352 168.994 87.3047C168.359 88.2813 168.359 88.2813 167.578 88.6719C164.721 88.8533 164.721 88.8533 163.696 88.1592C162.753 86.6606 162.752 85.3184 162.891 83.5938C163.649 81.2611 164.845 79.2249 166.406 77.3438Z" fill="#0C3E2E"/>
<path d="M183.203 90.2344C182.676 91.8486 182.014 92.7138 180.737 93.8232C180.441 94.0866 180.144 94.3499 179.839 94.6213C177.864 96.0849 176.219 96.3215 173.828 96.0937C172.742 95.3416 172.37 94.8037 171.899 93.5791C171.867 92.2341 172.218 91.6748 173.047 90.625C175.809 88.477 180.142 88.7036 183.203 90.2344Z" fill="#0C3E2E"/>
<path d="M158.203 82.8125C160.566 84.5161 162.195 86.4644 162.689 89.4089C162.775 91.1863 162.794 92.2062 161.67 93.6279C160.361 94.2256 159.624 94.3825 158.203 94.1406C157.304 93.4113 156.766 92.8295 156.25 91.7969C155.943 88.6179 156.332 86.0395 157.812 83.2031C157.941 83.0742 158.07 82.9453 158.203 82.8125Z" fill="#0C3E2E"/>
<path d="M189.843 30.8594C190.101 30.9883 190.359 31.1172 190.625 31.25C190.667 32.3002 190.698 33.3487 190.722 34.3994C190.742 34.8401 190.742 34.8401 190.762 35.2898C190.801 37.5278 190.361 38.7917 189.062 40.625C187.89 41.4062 187.89 41.4062 186.523 41.333C185.146 41.0134 184.808 40.9143 183.984 39.8438C183.598 38.3262 183.711 36.8986 184.387 35.4858C185.823 33.4108 187.688 32.1238 189.843 30.8594Z" fill="#0C3E2E"/>
<path d="M186.328 51.88C187.041 51.8837 187.041 51.8837 187.768 51.8876C188.801 51.9399 189.645 52.0378 190.625 52.3438C189.64 54.4565 188.303 56.111 186.352 57.3975C184.944 57.8861 183.902 57.9802 182.421 57.8126C181.475 57.2134 181.294 56.7602 180.908 55.713C180.843 54.3574 181.201 53.7927 182.031 52.7344C183.418 51.7966 184.687 51.8608 186.328 51.88Z" fill="#0C3E2E"/>
<path d="M172.266 44.5312C175.147 44.8743 177.046 45.8543 178.85 48.111C179.297 48.8281 179.297 48.8281 179.566 50.0732C179.297 51.1719 179.297 51.1719 178.467 52.124C177.344 52.7344 177.344 52.7344 176.172 52.7832C174.219 52.0507 173.365 50.697 172.535 48.877C172.205 47.3773 172.213 46.0648 172.266 44.5312Z" fill="#0C3E2E"/>
<path d="M194.141 42.9687C193.371 45.645 192.642 47.614 190.234 49.2187C189.138 49.3859 188.233 49.3079 187.109 49.2187C186.137 47.7607 186.116 47.0373 186.328 45.3125C188.612 42.898 191.011 42.8594 194.141 42.9687Z" fill="#0C3E2E"/>
<path d="M177.734 35.5469C179.713 37.0307 181.36 38.5197 181.776 41.0629C181.825 42.2031 181.766 43.124 181.226 44.1406C180.012 44.7669 179.07 44.6982 177.734 44.5312C176.474 43.4386 176.342 42.2356 176.172 40.625C176.376 39.3845 176.376 39.3845 176.709 38.1592C176.871 37.5451 176.871 37.5451 177.036 36.9186C177.344 35.9375 177.344 35.9375 177.734 35.5469Z" fill="#0C3E2E"/>
<path d="M98.8281 87.8906C99.0859 87.8906 99.3438 87.8906 99.6094 87.8906C100.195 89.0614 100.186 90.204 100.293 91.5039C100.339 92.0135 100.386 92.5231 100.433 93.0481C100.387 94.667 100.107 95.5311 99.2188 96.875C97.5584 97.4285 96.5943 96.9505 94.9219 96.4844C95.5188 94.4926 96.3712 92.7122 97.3145 90.8691C97.46 90.5816 97.6055 90.2941 97.7554 89.9979C98.1116 89.2947 98.4696 88.5926 98.8281 87.8906Z" fill="black"/>
<path d="M99.6094 103.906C99.4121 106.34 98.3101 108.381 97.2656 110.547C94.282 108.569 94.282 108.569 93.7256 107.129C93.75 106.25 93.75 106.25 94.1406 105.469C94.9021 105.161 95.6781 104.89 96.46 104.639C96.8824 104.501 97.3049 104.363 97.7402 104.221C98.8281 103.906 98.8281 103.906 99.6094 103.906Z" fill="black"/>
<path d="M142.188 195.703C142.316 195.961 142.445 196.219 142.578 196.484C142.236 197.51 142.236 197.51 141.406 198.437C140.219 198.612 139.082 198.55 137.891 198.437C137.633 197.793 137.375 197.148 137.109 196.484C138.96 195.356 140.078 195.165 142.188 195.703Z" fill="black"/>
<path d="M110.547 195.703C110.676 195.961 110.805 196.219 110.938 196.484C110.596 197.51 110.596 197.51 109.766 198.437C108.578 198.612 107.442 198.55 106.25 198.437C105.992 197.793 105.734 197.148 105.469 196.484C107.32 195.356 108.437 195.165 110.547 195.703Z" fill="black"/>
<path d="M121.484 196.875C122.461 197.656 122.461 197.656 123.047 198.437C122.437 199.243 122.437 199.243 121.484 200C120.17 199.932 119.15 199.809 117.969 199.219C117.725 198.218 117.725 198.218 117.578 197.266C118.823 196.643 120.133 196.669 121.484 196.875Z" fill="black"/>
<path d="M105.859 192.578C105.73 193.48 105.602 194.383 105.469 195.313C104.15 195.19 104.15 195.19 102.734 194.922C101.953 193.75 101.953 193.75 101.953 192.578C103.426 191.559 104.267 191.927 105.859 192.578Z" fill="black"/>
<path d="M93.3594 121.094C93.7461 121.223 94.1328 121.352 94.5312 121.484C94.6602 123.16 94.7891 124.836 94.9219 126.562C94.2773 126.434 93.6328 126.305 92.9687 126.172C92.585 124.589 92.5462 123.11 92.5781 121.484C92.8359 121.355 93.0937 121.227 93.3594 121.094Z" fill="black"/>
<path d="M163.77 194.458C164.124 194.611 164.479 194.764 164.844 194.922C164.715 195.824 164.586 196.727 164.453 197.656C163.551 197.527 162.648 197.398 161.719 197.266C161.461 196.621 161.203 195.977 160.938 195.313C162.002 194.248 162.26 194.081 163.77 194.458Z" fill="black"/>
<path d="M167.188 192.969C167.832 193.098 168.477 193.227 169.141 193.359C169.27 194.133 169.398 194.906 169.531 195.703C168.758 195.832 167.984 195.961 167.188 196.094C166.748 195.19 166.748 195.19 166.406 194.141C166.664 193.754 166.922 193.367 167.188 192.969Z" fill="black"/>
<path d="M87.8906 124.219C87.8906 124.863 87.8906 125.508 87.8906 126.172C87.2461 126.301 86.6016 126.43 85.9375 126.562C86.084 125.61 86.084 125.61 86.3281 124.609C87.1094 124.219 87.1094 124.219 87.8906 124.219Z" fill="black"/>
</svg>
